<?xml version="1.0" encoding="UTF-8"?>
<svg xmlns="http://www.w3.org/2000/svg" xmlns:xlink="http://www.w3.org/1999/xlink" width="80" height="80" viewBox="0 0 3000 3000">
<defs>
<clipPath id="clip-0">
<path clip-rule="nonzero" d="M 955 1011 L 2089 1011 L 2089 2144 L 955 2144 Z M 955 1011 "/>
</clipPath>
<clipPath id="clip-1">
<path clip-rule="nonzero" d="M 1521.820312 1011.078125 C 1834.5 1011.078125 2088.109375 1264.691406 2088.109375 1577.371094 C 2088.109375 1890.050781 1834.5 2143.660156 1521.820312 2143.660156 C 1209.140625 2143.660156 955.527344 1890.050781 955.527344 1577.371094 C 955.527344 1264.691406 1209.140625 1011.078125 1521.820312 1011.078125 Z M 1521.820312 1011.078125 "/>
</clipPath>
<clipPath id="clip-2">
<path clip-rule="nonzero" d="M 1521.820312 1011.078125 C 1834.5 1011.078125 2088.109375 1264.691406 2088.109375 1577.371094 C 2088.109375 1890.050781 1834.5 2143.660156 1521.820312 2143.660156 C 1209.140625 2143.660156 955.527344 1890.050781 955.527344 1577.371094 C 955.527344 1264.691406 1209.140625 1011.078125 1521.820312 1011.078125 "/>
</clipPath>
<linearGradient id="linear-pattern-0" gradientUnits="userSpaceOnUse" x1="-0.42578" y1="0" x2="1.425818" y2="0" gradientTransform="matrix(0, 611.677, 611.677, 0, 1521.82, 1271.52)">
<stop offset="0" stop-color="rgb(96.076965%, 51.763916%, 22.3526%)" stop-opacity="1"/>
<stop offset="0.125" stop-color="rgb(96.076965%, 51.763916%, 22.3526%)" stop-opacity="1"/>
<stop offset="0.1875" stop-color="rgb(96.076965%, 51.763916%, 22.3526%)" stop-opacity="1"/>
<stop offset="0.21875" stop-color="rgb(96.076965%, 51.763916%, 22.3526%)" stop-opacity="1"/>
<stop offset="0.234375" stop-color="rgb(96.090698%, 51.916504%, 22.44873%)" stop-opacity="1"/>
<stop offset="0.238281" stop-color="rgb(96.131897%, 52.337646%, 22.714233%)" stop-opacity="1"/>
<stop offset="0.242188" stop-color="rgb(96.157837%, 52.607727%, 22.885132%)" stop-opacity="1"/>
<stop offset="0.246094" stop-color="rgb(96.182251%, 52.876282%, 23.054504%)" stop-opacity="1"/>
<stop offset="0.25" stop-color="rgb(96.208191%, 53.146362%, 23.225403%)" stop-opacity="1"/>
<stop offset="0.253906" stop-color="rgb(96.234131%, 53.414917%, 23.394775%)" stop-opacity="1"/>
<stop offset="0.257812" stop-color="rgb(96.260071%, 53.684998%, 23.565674%)" stop-opacity="1"/>
<stop offset="0.261719" stop-color="rgb(96.284485%, 53.955078%, 23.735046%)" stop-opacity="1"/>
<stop offset="0.265625" stop-color="rgb(96.310425%, 54.225159%, 23.905945%)" stop-opacity="1"/>
<stop offset="0.269531" stop-color="rgb(96.336365%, 54.493713%, 24.075317%)" stop-opacity="1"/>
<stop offset="0.273438" stop-color="rgb(96.362305%, 54.763794%, 24.246216%)" stop-opacity="1"/>
<stop offset="0.277344" stop-color="rgb(96.386719%, 55.032349%, 24.415588%)" stop-opacity="1"/>
<stop offset="0.28125" stop-color="rgb(96.412659%, 55.302429%, 24.586487%)" stop-opacity="1"/>
<stop offset="0.285156" stop-color="rgb(96.438599%, 55.570984%, 24.755859%)" stop-opacity="1"/>
<stop offset="0.289062" stop-color="rgb(96.464539%, 55.841064%, 24.926758%)" stop-opacity="1"/>
<stop offset="0.292969" stop-color="rgb(96.488953%, 56.109619%, 25.09613%)" stop-opacity="1"/>
<stop offset="0.296875" stop-color="rgb(96.514893%, 56.3797%, 25.267029%)" stop-opacity="1"/>
<stop offset="0.300781" stop-color="rgb(96.540833%, 56.64978%, 25.437927%)" stop-opacity="1"/>
<stop offset="0.304688" stop-color="rgb(96.566772%, 56.919861%, 25.608826%)" stop-opacity="1"/>
<stop offset="0.308594" stop-color="rgb(96.591187%, 57.188416%, 25.778198%)" stop-opacity="1"/>
<stop offset="0.3125" stop-color="rgb(96.617126%, 57.458496%, 25.949097%)" stop-opacity="1"/>
<stop offset="0.316406" stop-color="rgb(96.641541%, 57.727051%, 26.118469%)" stop-opacity="1"/>
<stop offset="0.320312" stop-color="rgb(96.66748%, 57.997131%, 26.289368%)" stop-opacity="1"/>
<stop offset="0.324219" stop-color="rgb(96.69342%, 58.265686%, 26.45874%)" stop-opacity="1"/>
<stop offset="0.328125" stop-color="rgb(96.71936%, 58.535767%, 26.629639%)" stop-opacity="1"/>
<stop offset="0.332031" stop-color="rgb(96.743774%, 58.804321%, 26.799011%)" stop-opacity="1"/>
<stop offset="0.335938" stop-color="rgb(96.769714%, 59.074402%, 26.96991%)" stop-opacity="1"/>
<stop offset="0.339844" stop-color="rgb(96.795654%, 59.342957%, 27.139282%)" stop-opacity="1"/>
<stop offset="0.34375" stop-color="rgb(96.821594%, 59.613037%, 27.310181%)" stop-opacity="1"/>
<stop offset="0.347656" stop-color="rgb(96.846008%, 59.883118%, 27.479553%)" stop-opacity="1"/>
<stop offset="0.351562" stop-color="rgb(96.871948%, 60.153198%, 27.650452%)" stop-opacity="1"/>
<stop offset="0.355469" stop-color="rgb(96.897888%, 60.421753%, 27.819824%)" stop-opacity="1"/>
<stop offset="0.359375" stop-color="rgb(96.923828%, 60.691833%, 27.990723%)" stop-opacity="1"/>
<stop offset="0.363281" stop-color="rgb(96.948242%, 60.960388%, 28.160095%)" stop-opacity="1"/>
<stop offset="0.367188" stop-color="rgb(96.974182%, 61.230469%, 28.330994%)" stop-opacity="1"/>
<stop offset="0.371094" stop-color="rgb(97.000122%, 61.499023%, 28.500366%)" stop-opacity="1"/>
<stop offset="0.375" stop-color="rgb(97.026062%, 61.769104%, 28.671265%)" stop-opacity="1"/>
<stop offset="0.378906" stop-color="rgb(97.050476%, 62.037659%, 28.840637%)" stop-opacity="1"/>
<stop offset="0.382812" stop-color="rgb(97.076416%, 62.307739%, 29.011536%)" stop-opacity="1"/>
<stop offset="0.386719" stop-color="rgb(97.102356%, 62.57782%, 29.180908%)" stop-opacity="1"/>
<stop offset="0.390625" stop-color="rgb(97.128296%, 62.8479%, 29.351807%)" stop-opacity="1"/>
<stop offset="0.394531" stop-color="rgb(97.15271%, 63.116455%, 29.521179%)" stop-opacity="1"/>
<stop offset="0.398438" stop-color="rgb(97.17865%, 63.386536%, 29.692078%)" stop-opacity="1"/>
<stop offset="0.402344" stop-color="rgb(97.203064%, 63.65509%, 29.86145%)" stop-opacity="1"/>
<stop offset="0.40625" stop-color="rgb(97.229004%, 63.925171%, 30.032349%)" stop-opacity="1"/>
<stop offset="0.410156" stop-color="rgb(97.254944%, 64.193726%, 30.201721%)" stop-opacity="1"/>
<stop offset="0.414062" stop-color="rgb(97.280884%, 64.463806%, 30.37262%)" stop-opacity="1"/>
<stop offset="0.417969" stop-color="rgb(97.305298%, 64.732361%, 30.541992%)" stop-opacity="1"/>
<stop offset="0.421875" stop-color="rgb(97.331238%, 65.002441%, 30.712891%)" stop-opacity="1"/>
<stop offset="0.425781" stop-color="rgb(97.357178%, 65.272522%, 30.883789%)" stop-opacity="1"/>
<stop offset="0.429687" stop-color="rgb(97.383118%, 65.542603%, 31.054688%)" stop-opacity="1"/>
<stop offset="0.433594" stop-color="rgb(97.407532%, 65.811157%, 31.22406%)" stop-opacity="1"/>
<stop offset="0.4375" stop-color="rgb(97.433472%, 66.081238%, 31.394958%)" stop-opacity="1"/>
<stop offset="0.441406" stop-color="rgb(97.459412%, 66.349792%, 31.564331%)" stop-opacity="1"/>
<stop offset="0.445312" stop-color="rgb(97.485352%, 66.619873%, 31.735229%)" stop-opacity="1"/>
<stop offset="0.449219" stop-color="rgb(97.509766%, 66.888428%, 31.904602%)" stop-opacity="1"/>
<stop offset="0.453125" stop-color="rgb(97.535706%, 67.158508%, 32.0755%)" stop-opacity="1"/>
<stop offset="0.457031" stop-color="rgb(97.561646%, 67.427063%, 32.244873%)" stop-opacity="1"/>
<stop offset="0.460938" stop-color="rgb(97.587585%, 67.697144%, 32.415771%)" stop-opacity="1"/>
<stop offset="0.464844" stop-color="rgb(97.612%, 67.965698%, 32.585144%)" stop-opacity="1"/>
<stop offset="0.46875" stop-color="rgb(97.637939%, 68.235779%, 32.756042%)" stop-opacity="1"/>
<stop offset="0.472656" stop-color="rgb(97.663879%, 68.505859%, 32.925415%)" stop-opacity="1"/>
<stop offset="0.476562" stop-color="rgb(97.689819%, 68.77594%, 33.096313%)" stop-opacity="1"/>
<stop offset="0.480469" stop-color="rgb(97.714233%, 69.044495%, 33.265686%)" stop-opacity="1"/>
<stop offset="0.484375" stop-color="rgb(97.740173%, 69.314575%, 33.436584%)" stop-opacity="1"/>
<stop offset="0.488281" stop-color="rgb(97.766113%, 69.58313%, 33.605957%)" stop-opacity="1"/>
<stop offset="0.492188" stop-color="rgb(97.792053%, 69.85321%, 33.776855%)" stop-opacity="1"/>
<stop offset="0.496094" stop-color="rgb(97.816467%, 70.121765%, 33.946228%)" stop-opacity="1"/>
<stop offset="0.5" stop-color="rgb(97.842407%, 70.391846%, 34.117126%)" stop-opacity="1"/>
<stop offset="0.503906" stop-color="rgb(97.866821%, 70.6604%, 34.286499%)" stop-opacity="1"/>
<stop offset="0.507813" stop-color="rgb(97.892761%, 70.930481%, 34.457397%)" stop-opacity="1"/>
<stop offset="0.511719" stop-color="rgb(97.918701%, 71.200562%, 34.62677%)" stop-opacity="1"/>
<stop offset="0.515625" stop-color="rgb(97.944641%, 71.470642%, 34.797668%)" stop-opacity="1"/>
<stop offset="0.519531" stop-color="rgb(97.969055%, 71.739197%, 34.967041%)" stop-opacity="1"/>
<stop offset="0.523438" stop-color="rgb(97.994995%, 72.009277%, 35.137939%)" stop-opacity="1"/>
<stop offset="0.527344" stop-color="rgb(98.020935%, 72.277832%, 35.307312%)" stop-opacity="1"/>
<stop offset="0.53125" stop-color="rgb(98.046875%, 72.547913%, 35.47821%)" stop-opacity="1"/>
<stop offset="0.535156" stop-color="rgb(98.071289%, 72.816467%, 35.647583%)" stop-opacity="1"/>
<stop offset="0.539062" stop-color="rgb(98.097229%, 73.086548%, 35.818481%)" stop-opacity="1"/>
<stop offset="0.542969" stop-color="rgb(98.123169%, 73.355103%, 35.98938%)" stop-opacity="1"/>
<stop offset="0.546875" stop-color="rgb(98.149109%, 73.625183%, 36.160278%)" stop-opacity="1"/>
<stop offset="0.550781" stop-color="rgb(98.173523%, 73.893738%, 36.329651%)" stop-opacity="1"/>
<stop offset="0.554688" stop-color="rgb(98.199463%, 74.163818%, 36.500549%)" stop-opacity="1"/>
<stop offset="0.558594" stop-color="rgb(98.225403%, 74.433899%, 36.669922%)" stop-opacity="1"/>
<stop offset="0.5625" stop-color="rgb(98.251343%, 74.703979%, 36.84082%)" stop-opacity="1"/>
<stop offset="0.566406" stop-color="rgb(98.275757%, 74.972534%, 37.010193%)" stop-opacity="1"/>
<stop offset="0.570312" stop-color="rgb(98.301697%, 75.242615%, 37.181091%)" stop-opacity="1"/>
<stop offset="0.574219" stop-color="rgb(98.327637%, 75.511169%, 37.350464%)" stop-opacity="1"/>
<stop offset="0.578125" stop-color="rgb(98.353577%, 75.78125%, 37.521362%)" stop-opacity="1"/>
<stop offset="0.582031" stop-color="rgb(98.377991%, 76.049805%, 37.690735%)" stop-opacity="1"/>
<stop offset="0.585938" stop-color="rgb(98.403931%, 76.319885%, 37.861633%)" stop-opacity="1"/>
<stop offset="0.589844" stop-color="rgb(98.429871%, 76.58844%, 38.031006%)" stop-opacity="1"/>
<stop offset="0.59375" stop-color="rgb(98.455811%, 76.858521%, 38.201904%)" stop-opacity="1"/>
<stop offset="0.597656" stop-color="rgb(98.480225%, 77.128601%, 38.371277%)" stop-opacity="1"/>
<stop offset="0.601562" stop-color="rgb(98.506165%, 77.398682%, 38.542175%)" stop-opacity="1"/>
<stop offset="0.605469" stop-color="rgb(98.530579%, 77.667236%, 38.711548%)" stop-opacity="1"/>
<stop offset="0.609375" stop-color="rgb(98.556519%, 77.937317%, 38.882446%)" stop-opacity="1"/>
<stop offset="0.613281" stop-color="rgb(98.582458%, 78.205872%, 39.051819%)" stop-opacity="1"/>
<stop offset="0.617188" stop-color="rgb(98.608398%, 78.475952%, 39.222717%)" stop-opacity="1"/>
<stop offset="0.621094" stop-color="rgb(98.632812%, 78.744507%, 39.39209%)" stop-opacity="1"/>
<stop offset="0.625" stop-color="rgb(98.658752%, 79.014587%, 39.562988%)" stop-opacity="1"/>
<stop offset="0.628906" stop-color="rgb(98.684692%, 79.283142%, 39.732361%)" stop-opacity="1"/>
<stop offset="0.632812" stop-color="rgb(98.710632%, 79.553223%, 39.903259%)" stop-opacity="1"/>
<stop offset="0.636719" stop-color="rgb(98.735046%, 79.821777%, 40.072632%)" stop-opacity="1"/>
<stop offset="0.640625" stop-color="rgb(98.760986%, 80.091858%, 40.24353%)" stop-opacity="1"/>
<stop offset="0.644531" stop-color="rgb(98.786926%, 80.361938%, 40.412903%)" stop-opacity="1"/>
<stop offset="0.648438" stop-color="rgb(98.812866%, 80.632019%, 40.583801%)" stop-opacity="1"/>
<stop offset="0.652344" stop-color="rgb(98.83728%, 80.900574%, 40.753174%)" stop-opacity="1"/>
<stop offset="0.65625" stop-color="rgb(98.86322%, 81.170654%, 40.924072%)" stop-opacity="1"/>
<stop offset="0.660156" stop-color="rgb(98.88916%, 81.439209%, 41.093445%)" stop-opacity="1"/>
<stop offset="0.664062" stop-color="rgb(98.9151%, 81.70929%, 41.264343%)" stop-opacity="1"/>
<stop offset="0.667969" stop-color="rgb(98.939514%, 81.977844%, 41.435242%)" stop-opacity="1"/>
<stop offset="0.671875" stop-color="rgb(98.965454%, 82.247925%, 41.60614%)" stop-opacity="1"/>
<stop offset="0.675781" stop-color="rgb(98.991394%, 82.516479%, 41.775513%)" stop-opacity="1"/>
<stop offset="0.679688" stop-color="rgb(99.017334%, 82.78656%, 41.946411%)" stop-opacity="1"/>
<stop offset="0.683594" stop-color="rgb(99.041748%, 83.056641%, 42.115784%)" stop-opacity="1"/>
<stop offset="0.6875" stop-color="rgb(99.067688%, 83.326721%, 42.286682%)" stop-opacity="1"/>
<stop offset="0.691406" stop-color="rgb(99.092102%, 83.595276%, 42.456055%)" stop-opacity="1"/>
<stop offset="0.695312" stop-color="rgb(99.118042%, 83.865356%, 42.626953%)" stop-opacity="1"/>
<stop offset="0.699219" stop-color="rgb(99.143982%, 84.133911%, 42.796326%)" stop-opacity="1"/>
<stop offset="0.703125" stop-color="rgb(99.169922%, 84.403992%, 42.967224%)" stop-opacity="1"/>
<stop offset="0.707031" stop-color="rgb(99.194336%, 84.672546%, 43.136597%)" stop-opacity="1"/>
<stop offset="0.710938" stop-color="rgb(99.220276%, 84.942627%, 43.307495%)" stop-opacity="1"/>
<stop offset="0.714844" stop-color="rgb(99.246216%, 85.211182%, 43.476868%)" stop-opacity="1"/>
<stop offset="0.71875" stop-color="rgb(99.272156%, 85.481262%, 43.647766%)" stop-opacity="1"/>
<stop offset="0.722656" stop-color="rgb(99.29657%, 85.749817%, 43.817139%)" stop-opacity="1"/>
<stop offset="0.726562" stop-color="rgb(99.32251%, 86.019897%, 43.988037%)" stop-opacity="1"/>
<stop offset="0.730469" stop-color="rgb(99.34845%, 86.289978%, 44.15741%)" stop-opacity="1"/>
<stop offset="0.734375" stop-color="rgb(99.37439%, 86.560059%, 44.328308%)" stop-opacity="1"/>
<stop offset="0.738281" stop-color="rgb(99.398804%, 86.828613%, 44.497681%)" stop-opacity="1"/>
<stop offset="0.742188" stop-color="rgb(99.424744%, 87.098694%, 44.668579%)" stop-opacity="1"/>
<stop offset="0.746094" stop-color="rgb(99.450684%, 87.367249%, 44.837952%)" stop-opacity="1"/>
<stop offset="0.75" stop-color="rgb(99.476624%, 87.637329%, 45.00885%)" stop-opacity="1"/>
<stop offset="0.753906" stop-color="rgb(99.501038%, 87.905884%, 45.178223%)" stop-opacity="1"/>
<stop offset="0.757812" stop-color="rgb(99.526978%, 88.175964%, 45.349121%)" stop-opacity="1"/>
<stop offset="0.761719" stop-color="rgb(99.552917%, 88.444519%, 45.518494%)" stop-opacity="1"/>
<stop offset="0.765625" stop-color="rgb(99.578857%, 88.7146%, 45.689392%)" stop-opacity="1"/>
<stop offset="0.78125" stop-color="rgb(99.59259%, 88.865662%, 45.785522%)" stop-opacity="1"/>
<stop offset="0.8125" stop-color="rgb(99.606323%, 89.01825%, 45.881653%)" stop-opacity="1"/>
<stop offset="0.875" stop-color="rgb(99.606323%, 89.01825%, 45.881653%)" stop-opacity="1"/>
<stop offset="1" stop-color="rgb(99.606323%, 89.01825%, 45.881653%)" stop-opacity="1"/>
</linearGradient>
<clipPath id="clip-3">
<path clip-rule="nonzero" d="M 1387 1288 L 1926 1288 L 1926 1827 L 1387 1827 Z M 1387 1288 "/>
</clipPath>
<clipPath id="clip-4">
<path clip-rule="nonzero" d="M 1656.351562 1288.199219 C 1804.960938 1288.199219 1925.429688 1408.671875 1925.429688 1557.269531 C 1925.429688 1705.878906 1804.960938 1826.339844 1656.351562 1826.339844 C 1507.75 1826.339844 1387.28125 1705.878906 1387.28125 1557.269531 C 1387.28125 1408.671875 1507.75 1288.199219 1656.351562 1288.199219 Z M 1656.351562 1288.199219 "/>
</clipPath>
<clipPath id="clip-5">
<path clip-rule="nonzero" d="M 1656.351562 1288.199219 C 1804.960938 1288.199219 1925.429688 1408.671875 1925.429688 1557.269531 C 1925.429688 1705.878906 1804.960938 1826.339844 1656.351562 1826.339844 C 1507.75 1826.339844 1387.28125 1705.878906 1387.28125 1557.269531 C 1387.28125 1408.671875 1507.75 1288.199219 1656.351562 1288.199219 "/>
</clipPath>
<linearGradient id="linear-pattern-1" gradientUnits="userSpaceOnUse" x1="-0.636715" y1="0" x2="1.637222" y2="0" gradientTransform="matrix(70.3423, 278.642, 278.642, -70.3423, 1621.16, 1417.88)">
<stop offset="0" stop-color="rgb(100%, 79.998779%, 16.078186%)" stop-opacity="1"/>
<stop offset="0.25" stop-color="rgb(100%, 79.998779%, 16.078186%)" stop-opacity="1"/>
<stop offset="0.28125" stop-color="rgb(100%, 80.027771%, 16.142273%)" stop-opacity="1"/>
<stop offset="0.285156" stop-color="rgb(100%, 80.236816%, 16.607666%)" stop-opacity="1"/>
<stop offset="0.289062" stop-color="rgb(100%, 80.41687%, 17.010498%)" stop-opacity="1"/>
<stop offset="0.292969" stop-color="rgb(100%, 80.596924%, 17.41333%)" stop-opacity="1"/>
<stop offset="0.296875" stop-color="rgb(100%, 80.778503%, 17.816162%)" stop-opacity="1"/>
<stop offset="0.300781" stop-color="rgb(100%, 80.958557%, 18.217468%)" stop-opacity="1"/>
<stop offset="0.304688" stop-color="rgb(100%, 81.138611%, 18.6203%)" stop-opacity="1"/>
<stop offset="0.308594" stop-color="rgb(100%, 81.318665%, 19.023132%)" stop-opacity="1"/>
<stop offset="0.3125" stop-color="rgb(100%, 81.500244%, 19.425964%)" stop-opacity="1"/>
<stop offset="0.316406" stop-color="rgb(100%, 81.680298%, 19.827271%)" stop-opacity="1"/>
<stop offset="0.320312" stop-color="rgb(100%, 81.860352%, 20.230103%)" stop-opacity="1"/>
<stop offset="0.324219" stop-color="rgb(100%, 82.040405%, 20.632935%)" stop-opacity="1"/>
<stop offset="0.328125" stop-color="rgb(100%, 82.221985%, 21.035767%)" stop-opacity="1"/>
<stop offset="0.332031" stop-color="rgb(100%, 82.402039%, 21.438599%)" stop-opacity="1"/>
<stop offset="0.335938" stop-color="rgb(100%, 82.582092%, 21.841431%)" stop-opacity="1"/>
<stop offset="0.339844" stop-color="rgb(100%, 82.762146%, 22.242737%)" stop-opacity="1"/>
<stop offset="0.34375" stop-color="rgb(100%, 82.943726%, 22.645569%)" stop-opacity="1"/>
<stop offset="0.347656" stop-color="rgb(100%, 83.123779%, 23.048401%)" stop-opacity="1"/>
<stop offset="0.351562" stop-color="rgb(100%, 83.303833%, 23.451233%)" stop-opacity="1"/>
<stop offset="0.355469" stop-color="rgb(100%, 83.483887%, 23.852539%)" stop-opacity="1"/>
<stop offset="0.359375" stop-color="rgb(100%, 83.665466%, 24.255371%)" stop-opacity="1"/>
<stop offset="0.363281" stop-color="rgb(100%, 83.84552%, 24.658203%)" stop-opacity="1"/>
<stop offset="0.367188" stop-color="rgb(100%, 84.025574%, 25.061035%)" stop-opacity="1"/>
<stop offset="0.371094" stop-color="rgb(100%, 84.205627%, 25.462341%)" stop-opacity="1"/>
<stop offset="0.375" stop-color="rgb(100%, 84.387207%, 25.865173%)" stop-opacity="1"/>
<stop offset="0.378906" stop-color="rgb(100%, 84.567261%, 26.268005%)" stop-opacity="1"/>
<stop offset="0.382812" stop-color="rgb(100%, 84.747314%, 26.670837%)" stop-opacity="1"/>
<stop offset="0.386719" stop-color="rgb(100%, 84.927368%, 27.072144%)" stop-opacity="1"/>
<stop offset="0.390625" stop-color="rgb(100%, 85.108948%, 27.474976%)" stop-opacity="1"/>
<stop offset="0.394531" stop-color="rgb(100%, 85.289001%, 27.877808%)" stop-opacity="1"/>
<stop offset="0.398438" stop-color="rgb(100%, 85.469055%, 28.28064%)" stop-opacity="1"/>
<stop offset="0.402344" stop-color="rgb(100%, 85.649109%, 28.683472%)" stop-opacity="1"/>
<stop offset="0.40625" stop-color="rgb(100%, 85.830688%, 29.086304%)" stop-opacity="1"/>
<stop offset="0.410156" stop-color="rgb(100%, 86.010742%, 29.48761%)" stop-opacity="1"/>
<stop offset="0.414062" stop-color="rgb(100%, 86.190796%, 29.890442%)" stop-opacity="1"/>
<stop offset="0.417969" stop-color="rgb(100%, 86.37085%, 30.293274%)" stop-opacity="1"/>
<stop offset="0.421875" stop-color="rgb(100%, 86.552429%, 30.696106%)" stop-opacity="1"/>
<stop offset="0.425781" stop-color="rgb(100%, 86.732483%, 31.097412%)" stop-opacity="1"/>
<stop offset="0.429688" stop-color="rgb(100%, 86.912537%, 31.500244%)" stop-opacity="1"/>
<stop offset="0.433594" stop-color="rgb(100%, 87.09259%, 31.903076%)" stop-opacity="1"/>
<stop offset="0.4375" stop-color="rgb(100%, 87.27417%, 32.305908%)" stop-opacity="1"/>
<stop offset="0.441406" stop-color="rgb(100%, 87.454224%, 32.707214%)" stop-opacity="1"/>
<stop offset="0.445312" stop-color="rgb(100%, 87.634277%, 33.110046%)" stop-opacity="1"/>
<stop offset="0.449219" stop-color="rgb(100%, 87.814331%, 33.512878%)" stop-opacity="1"/>
<stop offset="0.453125" stop-color="rgb(100%, 87.995911%, 33.91571%)" stop-opacity="1"/>
<stop offset="0.457031" stop-color="rgb(100%, 88.175964%, 34.317017%)" stop-opacity="1"/>
<stop offset="0.460938" stop-color="rgb(100%, 88.356018%, 34.719849%)" stop-opacity="1"/>
<stop offset="0.464844" stop-color="rgb(100%, 88.536072%, 35.122681%)" stop-opacity="1"/>
<stop offset="0.46875" stop-color="rgb(100%, 88.717651%, 35.525513%)" stop-opacity="1"/>
<stop offset="0.472656" stop-color="rgb(100%, 88.897705%, 35.926819%)" stop-opacity="1"/>
<stop offset="0.476562" stop-color="rgb(100%, 89.077759%, 36.329651%)" stop-opacity="1"/>
<stop offset="0.480469" stop-color="rgb(100%, 89.257812%, 36.732483%)" stop-opacity="1"/>
<stop offset="0.484375" stop-color="rgb(100%, 89.439392%, 37.135315%)" stop-opacity="1"/>
<stop offset="0.488281" stop-color="rgb(100%, 89.619446%, 37.538147%)" stop-opacity="1"/>
<stop offset="0.492188" stop-color="rgb(100%, 89.7995%, 37.940979%)" stop-opacity="1"/>
<stop offset="0.496094" stop-color="rgb(100%, 89.979553%, 38.342285%)" stop-opacity="1"/>
<stop offset="0.5" stop-color="rgb(100%, 90.161133%, 38.745117%)" stop-opacity="1"/>
<stop offset="0.503906" stop-color="rgb(100%, 90.240479%, 39.074707%)" stop-opacity="1"/>
<stop offset="0.507812" stop-color="rgb(100%, 90.32135%, 39.404297%)" stop-opacity="1"/>
<stop offset="0.511719" stop-color="rgb(100%, 90.391541%, 39.726257%)" stop-opacity="1"/>
<stop offset="0.515625" stop-color="rgb(100%, 90.461731%, 40.048218%)" stop-opacity="1"/>
<stop offset="0.519531" stop-color="rgb(100%, 90.531921%, 40.368652%)" stop-opacity="1"/>
<stop offset="0.523438" stop-color="rgb(100%, 90.602112%, 40.690613%)" stop-opacity="1"/>
<stop offset="0.527344" stop-color="rgb(100%, 90.670776%, 41.012573%)" stop-opacity="1"/>
<stop offset="0.53125" stop-color="rgb(100%, 90.740967%, 41.334534%)" stop-opacity="1"/>
<stop offset="0.535156" stop-color="rgb(100%, 90.811157%, 41.656494%)" stop-opacity="1"/>
<stop offset="0.539062" stop-color="rgb(100%, 90.881348%, 41.978455%)" stop-opacity="1"/>
<stop offset="0.542969" stop-color="rgb(100%, 90.951538%, 42.300415%)" stop-opacity="1"/>
<stop offset="0.546875" stop-color="rgb(100%, 91.021729%, 42.622375%)" stop-opacity="1"/>
<stop offset="0.550781" stop-color="rgb(100%, 91.090393%, 42.94281%)" stop-opacity="1"/>
<stop offset="0.554688" stop-color="rgb(100%, 91.160583%, 43.264771%)" stop-opacity="1"/>
<stop offset="0.558594" stop-color="rgb(100%, 91.230774%, 43.586731%)" stop-opacity="1"/>
<stop offset="0.5625" stop-color="rgb(100%, 91.300964%, 43.908691%)" stop-opacity="1"/>
<stop offset="0.566406" stop-color="rgb(100%, 91.371155%, 44.230652%)" stop-opacity="1"/>
<stop offset="0.570312" stop-color="rgb(100%, 91.441345%, 44.552612%)" stop-opacity="1"/>
<stop offset="0.574219" stop-color="rgb(100%, 91.51001%, 44.873047%)" stop-opacity="1"/>
<stop offset="0.578125" stop-color="rgb(100%, 91.5802%, 45.195007%)" stop-opacity="1"/>
<stop offset="0.582031" stop-color="rgb(100%, 91.650391%, 45.516968%)" stop-opacity="1"/>
<stop offset="0.585938" stop-color="rgb(100%, 91.720581%, 45.838928%)" stop-opacity="1"/>
<stop offset="0.589844" stop-color="rgb(100%, 91.790771%, 46.160889%)" stop-opacity="1"/>
<stop offset="0.59375" stop-color="rgb(100%, 91.860962%, 46.482849%)" stop-opacity="1"/>
<stop offset="0.597656" stop-color="rgb(100%, 91.929626%, 46.803284%)" stop-opacity="1"/>
<stop offset="0.601562" stop-color="rgb(100%, 91.999817%, 47.125244%)" stop-opacity="1"/>
<stop offset="0.605469" stop-color="rgb(100%, 92.070007%, 47.447205%)" stop-opacity="1"/>
<stop offset="0.609375" stop-color="rgb(100%, 92.140198%, 47.769165%)" stop-opacity="1"/>
<stop offset="0.613281" stop-color="rgb(100%, 92.210388%, 48.091125%)" stop-opacity="1"/>
<stop offset="0.617188" stop-color="rgb(100%, 92.280579%, 48.413086%)" stop-opacity="1"/>
<stop offset="0.621094" stop-color="rgb(100%, 92.349243%, 48.735046%)" stop-opacity="1"/>
<stop offset="0.625" stop-color="rgb(100%, 92.419434%, 49.057007%)" stop-opacity="1"/>
<stop offset="0.628906" stop-color="rgb(100%, 92.489624%, 49.377441%)" stop-opacity="1"/>
<stop offset="0.632812" stop-color="rgb(100%, 92.559814%, 49.699402%)" stop-opacity="1"/>
<stop offset="0.636719" stop-color="rgb(100%, 92.630005%, 50.021362%)" stop-opacity="1"/>
<stop offset="0.640625" stop-color="rgb(100%, 92.700195%, 50.343323%)" stop-opacity="1"/>
<stop offset="0.644531" stop-color="rgb(100%, 92.76886%, 50.665283%)" stop-opacity="1"/>
<stop offset="0.648438" stop-color="rgb(100%, 92.83905%, 50.987244%)" stop-opacity="1"/>
<stop offset="0.652344" stop-color="rgb(100%, 92.909241%, 51.307678%)" stop-opacity="1"/>
<stop offset="0.65625" stop-color="rgb(100%, 92.979431%, 51.629639%)" stop-opacity="1"/>
<stop offset="0.660156" stop-color="rgb(100%, 93.049622%, 51.951599%)" stop-opacity="1"/>
<stop offset="0.664062" stop-color="rgb(100%, 93.119812%, 52.27356%)" stop-opacity="1"/>
<stop offset="0.667969" stop-color="rgb(100%, 93.188477%, 52.59552%)" stop-opacity="1"/>
<stop offset="0.671875" stop-color="rgb(100%, 93.258667%, 52.91748%)" stop-opacity="1"/>
<stop offset="0.675781" stop-color="rgb(100%, 93.328857%, 53.237915%)" stop-opacity="1"/>
<stop offset="0.679688" stop-color="rgb(100%, 93.399048%, 53.559875%)" stop-opacity="1"/>
<stop offset="0.683594" stop-color="rgb(100%, 93.469238%, 53.881836%)" stop-opacity="1"/>
<stop offset="0.6875" stop-color="rgb(100%, 93.539429%, 54.203796%)" stop-opacity="1"/>
<stop offset="0.691406" stop-color="rgb(100%, 93.608093%, 54.525757%)" stop-opacity="1"/>
<stop offset="0.695312" stop-color="rgb(100%, 93.678284%, 54.847717%)" stop-opacity="1"/>
<stop offset="0.699219" stop-color="rgb(100%, 93.748474%, 55.168152%)" stop-opacity="1"/>
<stop offset="0.703125" stop-color="rgb(100%, 93.818665%, 55.490112%)" stop-opacity="1"/>
<stop offset="0.707031" stop-color="rgb(100%, 93.888855%, 55.812073%)" stop-opacity="1"/>
<stop offset="0.710938" stop-color="rgb(100%, 93.959045%, 56.134033%)" stop-opacity="1"/>
<stop offset="0.714844" stop-color="rgb(100%, 94.02771%, 56.455994%)" stop-opacity="1"/>
<stop offset="0.71875" stop-color="rgb(100%, 94.0979%, 56.777954%)" stop-opacity="1"/>
<stop offset="0.75" stop-color="rgb(100%, 94.107056%, 56.819153%)" stop-opacity="1"/>
<stop offset="1" stop-color="rgb(100%, 94.116211%, 56.861877%)" stop-opacity="1"/>
</linearGradient>
</defs>
<rect x="-300" y="-300" width="80" height="80" fill="rgb(100%, 100%, 100%)" fill-opacity="1"/>
<path fill-rule="nonzero" fill="rgb(3.137207%, 15.281677%, 23.143005%)" fill-opacity="1" d="M 1521.820312 954.171875 C 1866.039062 954.171875 2145.011719 1233.148438 2145.011719 1577.371094 C 2145.011719 1921.601562 1866.039062 2200.570312 1521.820312 2200.570312 C 1177.589844 2200.570312 898.621094 1921.601562 898.621094 1577.371094 C 898.621094 1233.148438 1177.589844 954.171875 1521.820312 954.171875 "/>
<g clip-path="url(#clip-0)">
<g clip-path="url(#clip-1)">
<g clip-path="url(#clip-2)">
<path fill-rule="nonzero" fill="url(#linear-pattern-0)" d="M 955.527344 1011.078125 L 2088.109375 1011.078125 L 2088.109375 2143.660156 L 955.527344 2143.660156 Z M 955.527344 1011.078125 "/>
</g>
</g>
</g>
<g clip-path="url(#clip-3)">
<g clip-path="url(#clip-4)">
<g clip-path="url(#clip-5)">
<path fill-rule="nonzero" fill="url(#linear-pattern-1)" d="M 1259.566406 1320.441406 L 1893.1875 1160.484375 L 2053.144531 1794.097656 L 1419.519531 1954.054688 Z M 1259.566406 1320.441406 "/>
</g>
</g>
</g>
<path fill-rule="nonzero" fill="rgb(3.137207%, 15.281677%, 23.143005%)" fill-opacity="1" d="M 2039.859375 971.488281 L 2037.699219 970.570312 L 2038.621094 968.089844 C 2038.929688 969.328125 2039.550781 970.261719 2039.859375 971.488281 Z M 2007.390625 1033.660156 C 1985.429688 1049.121094 1884.289062 1124.589844 1868.828125 1221.699219 C 1851.511719 1331.191406 1907.488281 1430.160156 1907.488281 1430.160156 C 1907.488281 1430.160156 1906.25 1328.398438 1919.238281 1274.28125 C 1929.140625 1286.03125 1937.179688 1295.929688 1937.179688 1295.929688 C 1937.179688 1295.929688 1942.441406 1228.820312 1950.171875 1184.898438 L 1961.609375 1218.609375 C 1973.671875 1170.359375 1998.730469 1087.171875 2034.910156 1036.75 C 2038 1040.460938 2040.789062 1044.179688 2043.878906 1047.890625 C 2037.078125 1207.480469 1987.589844 1620.359375 1656.039062 1764.800781 L 1658.519531 1809.640625 L 1885.839844 1781.5 C 1993.46875 1585.109375 2081.921875 1324.378906 2081.921875 1114.378906 C 2094.910156 1143.449219 2104.191406 1173.148438 2108.519531 1197.578125 L 2121.511719 1166.960938 C 2125.53125 1209.019531 2125.839844 1272.421875 2125.839844 1272.421875 C 2125.839844 1272.421875 2133.878906 1263.449219 2144.398438 1253.25 C 2152.75 1305.210938 2144.398438 1400.769531 2144.398438 1400.769531 C 2243.371094 1252.628906 2208.730469 1124.898438 2088.109375 1034.589844 C 2130.171875 1060.570312 2170.070312 1097.679688 2193.261719 1128.921875 L 2191.71875 1095.519531 C 2214.601562 1131.699219 2243.980469 1188.921875 2243.980469 1188.921875 C 2243.980469 1188.921875 2247.390625 1177.46875 2252.640625 1163.871094 C 2283.878906 1206.859375 2319.449219 1296.859375 2319.449219 1296.859375 C 2345.121094 1128.921875 2263.46875 1029.640625 2121.199219 995 C 2157.390625 990.980469 2195.121094 993.761719 2223.878906 1001.800781 L 2199.140625 973.660156 C 2237.800781 987.890625 2295.328125 1016.03125 2295.328125 1016.03125 C 2295.328125 1016.03125 2289.140625 1003.351562 2282.328125 987.269531 C 2330.578125 1001.5 2415.328125 1053.761719 2415.328125 1053.761719 C 2311.71875 890.769531 2196.359375 874.070312 2089.039062 943.351562 C 2102.640625 920.148438 2120.269531 899.429688 2136.050781 887.058594 L 2113.160156 886.128906 C 2136.050781 871.289062 2172.851562 853.039062 2172.851562 853.039062 C 2172.851562 853.039062 2164.5 849.949219 2154.910156 845.308594 C 2181.820312 824.589844 2240.578125 803.558594 2240.578125 803.558594 C 2240.578125 803.558594 2166.050781 785.621094 2108.519531 821.179688 C 2077.898438 840.359375 2061.511719 879.328125 2053.160156 911.488281 C 2042.328125 878.710938 2019.449219 825.820312 1978 806.960938 C 1916.460938 779.121094 1845.011719 806.339844 1845.011719 806.339844 C 1845.011719 806.339844 1905.941406 819.640625 1935.320312 836.648438 C 1926.351562 842.53125 1918.621094 846.859375 1918.621094 846.859375 C 1918.621094 846.859375 1957.28125 860.148438 1982.03125 871.910156 L 1966.871094 874.378906 C 1897.898438 825.511719 1817.800781 827.371094 1732.441406 910.261719 C 1732.441406 910.261719 1805.121094 891.390625 1845.011719 892.320312 C 1837.898438 902.53125 1831.410156 910.878906 1831.410156 910.878906 C 1831.410156 910.878906 1879.960938 903.449219 1912.128906 901.910156 L 1889.238281 917.058594 C 1923.878906 918.300781 1973.058594 932.53125 2007.699219 956.339844 C 1842.230469 884.28125 1695.320312 914.589844 1624.5 1122.730469 C 1624.5 1122.730469 1704.910156 1050.671875 1756.558594 1026.238281 C 1754.089844 1044.179688 1750.988281 1058.710938 1750.988281 1058.710938 C 1750.988281 1058.710938 1808.210938 1017.578125 1848.421875 994.691406 L 1829.238281 1029.019531 C 1867.589844 1011.078125 1925.738281 998.710938 1978.929688 1000.261719 C 1768.308594 1040.148438 1635.011719 1153.039062 1684.191406 1366.441406 C 1684.191406 1366.441406 1722.851562 1260.359375 1759.960938 1209.640625 C 1767.378906 1225.410156 1772.949219 1239.019531 1772.949219 1239.019531 C 1772.949219 1239.019531 1806.039062 1171.601562 1832.640625 1128.921875 L 1833.261719 1168.199219 C 1868.519531 1120.570312 1939.339844 1061.191406 2007.390625 1033.660156 "/>
<path fill-rule="nonzero" fill="rgb(3.137207%, 15.281677%, 23.143005%)" fill-opacity="1" d="M 1311.199219 1351.289062 C 1284.910156 1369.851562 1240.371094 1407.890625 1229.859375 1453.96875 C 1214.699219 1520.46875 1247.800781 1580.769531 1247.800781 1580.769531 C 1247.800781 1580.769531 1250.578125 1518.921875 1261.101562 1486.140625 C 1267.28125 1493.25 1271.921875 1499.429688 1271.921875 1499.429688 C 1271.921875 1499.429688 1277.800781 1458.609375 1284.289062 1432.011719 L 1290.789062 1452.421875 C 1299.140625 1426.441406 1318.929688 1392.109375 1342.128906 1366.441406 C 1293.261719 1552.320312 1399.648438 1764.488281 1548.109375 1827.269531 L 1631.609375 1787.988281 C 1358.210938 1720.570312 1356.351562 1444.070312 1360.988281 1367.988281 C 1382.640625 1390.570312 1400.890625 1420.261719 1409.238281 1443.460938 L 1415.121094 1422.421875 C 1421.921875 1448.398438 1428.71875 1488.300781 1428.71875 1488.300781 C 1428.71875 1488.300781 1433.359375 1481.808594 1439.550781 1474.070312 C 1450.371094 1505.621094 1454.398438 1566.859375 1454.398438 1566.859375 C 1454.398438 1566.859375 1486.25 1503.148438 1469.859375 1438.511719 C 1459.339844 1397.371094 1420.679688 1366.128906 1393.78125 1348.820312 C 1424.390625 1355.308594 1454.398438 1367.988281 1473.878906 1381.910156 L 1466.769531 1358.710938 C 1489.03125 1377.269531 1519.03125 1408.820312 1519.03125 1408.820312 C 1519.03125 1408.820312 1519.648438 1399.539062 1520.890625 1388.398438 C 1549.960938 1409.429688 1590.171875 1462.011719 1590.171875 1462.011719 C 1577.800781 1329.328125 1489.339844 1293.761719 1373.050781 1316.648438 C 1395.628906 1299.328125 1428.421875 1286.648438 1452.230469 1283.25 L 1435.53125 1275.210938 C 1457.800781 1273.660156 1491.820312 1274.589844 1491.820312 1274.589844 C 1491.820312 1274.589844 1486.871094 1269.949219 1481.300781 1263.761719 C 1508.828125 1260.050781 1560.171875 1266.550781 1560.171875 1266.550781 C 1497.070312 1220.160156 1441.710938 1225.410156 1396.25 1261.910156 L 1385.730469 1261.601562 C 1402.128906 1252.011719 1428.421875 1240.570312 1428.421875 1240.570312 C 1428.421875 1240.570312 1422.851562 1238.398438 1416.039062 1235.308594 C 1435.53125 1222.320312 1477.28125 1209.019531 1477.28125 1209.019531 C 1477.28125 1209.019531 1426.25 1196.960938 1385.121094 1219.851562 C 1357.589844 1235 1344.289062 1270.261719 1338.421875 1292.21875 C 1330.988281 1272.109375 1317.691406 1248.609375 1295.730469 1239.019531 C 1253.980469 1220.460938 1203.570312 1237.78125 1203.570312 1237.78125 C 1203.570312 1237.78125 1245.320312 1246.75 1264.808594 1257.890625 C 1258.308594 1261.601562 1252.738281 1264.070312 1252.738281 1264.070312 C 1252.738281 1264.070312 1279.03125 1273.039062 1295.730469 1280.769531 L 1279.960938 1282.941406 C 1291.398438 1289.738281 1304.390625 1301.191406 1314.910156 1315.101562 C 1241.921875 1275.828125 1167.691406 1291.289062 1108.621094 1398.609375 C 1108.621094 1398.609375 1161.199219 1362.109375 1192.128906 1351.289062 C 1188.410156 1361.5 1185.011719 1370.160156 1185.011719 1370.160156 C 1185.011719 1370.160156 1221.199219 1349.738281 1245.941406 1339.230469 L 1231.089844 1358.089844 C 1253.050781 1350.671875 1283.671875 1347.578125 1311.199219 1351.289062 "/>
<path fill-rule="nonzero" fill="rgb(66.992188%, 72.068787%, 62.693787%)" fill-opacity="1" d="M 2086.871094 1538.710938 C 2030.578125 1562.53125 1978.308594 1598.710938 1935.628906 1653.761719 C 1737.691406 1908.609375 1593.570312 1680.359375 1315.21875 1854.800781 C 1249.339844 1896.238281 1198 1951.289062 1158.101562 2011.289062 C 1256.460938 2093.871094 1383.261719 2143.660156 1521.820312 2143.660156 C 1834.5 2143.660156 2088.109375 1890.050781 2088.109375 1577.371094 C 2088.109375 1564.378906 2087.800781 1551.699219 2086.871094 1538.710938 "/>
<path fill-rule="nonzero" fill="rgb(47.851562%, 54.492188%, 41.184998%)" fill-opacity="1" d="M 2087.800781 1593.460938 C 2035.839844 1623.148438 1988.828125 1664.898438 1953.570312 1723.039062 C 1785.320312 1998.300781 1616.460938 1787.679688 1359.140625 1992.121094 C 1324.808594 2019.640625 1295.121094 2050.878906 1270.058594 2084.898438 C 1345.839844 2122.628906 1431.511719 2143.660156 1521.820312 2143.660156 C 1829.238281 2143.660156 2079.449219 1899.019531 2087.800781 1593.460938 "/>
<path fill-rule="nonzero" fill="rgb(38.035583%, 45.483398%, 36.863708%)" fill-opacity="1" d="M 2080.378906 1671.390625 C 2041.101562 1705.109375 2007.699219 1747.789062 1983.878906 1800.980469 C 1854.601562 2092.628906 1662.851562 1913.558594 1438 2137.480469 C 1465.21875 2141.5 1493.359375 2143.660156 1521.820312 2143.660156 C 1802.640625 2143.660156 2035.53125 1939.539062 2080.378906 1671.390625 "/>
<path fill-rule="nonzero" fill="rgb(3.137207%, 15.281677%, 23.143005%)" fill-opacity="1" d="M 2143.78125 1540.261719 C 2072.328125 1560.359375 2003.980469 1598.710938 1951.71875 1666.140625 C 1837.898438 1812.730469 1741.410156 1808.710938 1629.761719 1803.769531 C 1543.78125 1800.050781 1447.898438 1795.71875 1326.039062 1872.121094 C 1244.699219 1923.148438 1186.25 1995.828125 1144.191406 2073.148438 C 1133.359375 2064.800781 1122.851562 2056.140625 1112.328125 2047.171875 C 1157.179688 1967.058594 1219.03125 1891.289062 1304.390625 1837.480469 C 1437.070312 1754.589844 1539.449219 1758.921875 1631.609375 1762.941406 C 1731.820312 1767.578125 1818.730469 1771.289062 1919.550781 1641.089844 C 1979.859375 1563.460938 2058.730469 1520.78125 2140.070312 1499.429688 C 2141.921875 1512.730469 2143.160156 1526.648438 2143.78125 1540.261719 "/>
<path fill-rule="nonzero" fill="rgb(3.137207%, 15.281677%, 23.143005%)" fill-opacity="1" d="M 885.9375 753.449219 C 885.9375 753.449219 976.25 885.820312 979.652344 895.410156 C 982.125 902.53125 1052.949219 913.660156 1188.71875 913.039062 L 1236.660156 986.339844 L 1272.851562 979.230469 L 1304.078125 910.261719 C 1315.839844 909.640625 1327.898438 909.328125 1339.960938 908.398438 C 1574.078125 895.71875 1575.011719 867.578125 1545.320312 851.488281 C 1515.628906 835.410156 1406.769531 799.539062 1306.25 817.46875 C 1281.820312 821.800781 1250.578125 826.128906 1217.179688 829.839844 L 1100.890625 772.941406 L 1061.300781 771.078125 L 1127.179688 839.429688 C 1101.820312 841.601562 1077.691406 843.761719 1056.96875 845.621094 L 966.042969 769.539062 L 885.9375 753.449219 "/>
<path fill-rule="nonzero" fill="rgb(100%, 100%, 100%)" fill-opacity="1" d="M 829.960938 1315.410156 C 963.566406 1493.558594 1257.070312 1840.261719 1518.71875 1973.25 C 1780.378906 2106.238281 1955.738281 2100.671875 2040.171875 2084.898438 L 1958.210938 2231.191406 C 1860.171875 2224.078125 1200.480469 2048.101562 821.300781 1531.289062 L 829.960938 1315.410156 "/>
<path fill-rule="nonzero" fill="rgb(3.137207%, 15.281677%, 23.143005%)" fill-opacity="1" d="M 1103.671875 844.691406 C 878.824219 775.101562 696.042969 791.191406 620.578125 908.710938 C 486.96875 1116.238281 737.796875 1560.050781 1180.679688 1900.570312 C 1623.570312 2240.78125 2090.578125 2348.410156 2224.191406 2140.878906 C 2299.648438 2023.351562 2251.71875 1830.050781 2115.628906 1622.21875 C 2236.25 1813.351562 2276.769531 1989.328125 2207.179688 2097.578125 C 2079.761719 2295.828125 1630.679688 2190.980469 1204.5 1863.460938 C 778.308594 1535.929688 536.144531 1109.738281 663.566406 911.488281 C 733.15625 803.25 898.621094 785.621094 1103.671875 844.691406 "/>
<path fill-rule="nonzero" fill="rgb(3.137207%, 15.281677%, 23.143005%)" fill-opacity="1" d="M 1088.828125 876.238281 C 899.546875 821.179688 748.929688 836.03125 686.453125 933.449219 C 568.617188 1116.550781 807.691406 1522.011719 1220.269531 1839.019531 C 1632.851562 2156.339844 2062.75 2264.898438 2180.578125 2081.808594 C 2243.058594 1984.378906 2205.011719 1824.488281 2093.671875 1648.199219 C 2162.03125 1778.398438 2179.960938 1893.460938 2132.03125 1967.988281 C 2026.871094 2131.289062 1643.671875 2034.800781 1275.941406 1752.421875 C 908.207031 1469.738281 695.421875 1108.199219 800.578125 944.898438 C 848.515625 870.671875 953.671875 849.949219 1088.828125 876.238281 "/>
</svg>
